<svg xmlns="http://www.w3.org/2000/svg" version="1.1" xmlns:xlink="http://www.w3.org/1999/xlink" xmlns:svgjs="http://svgjs.dev/svgjs" width="100%" height="100%" viewBox="0 0 1000 600"><rect width="1000" height="600" x="0" y="0" fill="#e76f51"/><g><rect width="333.3333333333333" height="333.3333333333333" y="320.95151595984714" fill="#080a52" transform="matrix(0.4184275689866759,0,0,0.41842756898667605,0,95.96345319621331)" x="298.7377509888723"/><path d="M419.19002703116996 412.6329629946362L511.6129637552474 412.6329629946362L511.6129637552474 429.1754766769263L439.59924426309897 429.1754766769263L439.59924426309897 479.0065284369353L497.91960005690186 479.0065284369353L497.91960005690186 494.90943702078886L439.59924426309897 494.90943702078886L439.59924426309897 546.0778448957105L511.6129637552474 546.0778448957105L511.6129637552474 562.6203585780006L419.19002703116996 562.6203585780006L419.19002703116996 412.6329629946362Z " fill="#e76f51" transform="matrix(0.4184275689866759,0,0,0.41842756898667605,0,95.96345319621331)"/><path d="M715.4053088751991 416.64144174727204L804.359791410216 416.64144174727204L804.359791410216 432.5631468628507L735.0486076293929 432.5631468628507L735.0486076293929 480.52413555898744L791.1803131862484 480.52413555898744L791.1803131862484 495.8302387193065L735.0486076293929 495.8302387193065L735.0486076293929 545.078395140077L804.359791410216 545.078395140077L804.359791410216 561.0001002556558L715.4053088751991 561.0001002556558L715.4053088751991 416.64144174727204ZM860.5754426882432 562.6230508649764L860.5754426882432 562.6230508649764Q848.4872588395087 562.6230508649764 841.9954564022253 555.8514293571207Q835.5036539649419 549.1077897563218 835.5036539649419 536.4319858593849L835.5036539649419 536.4319858593849L835.5036539649419 473.97636930758955L823.1916148597493 473.97636930758955Q821.5966461574857 473.97636930758955 820.4773698751954 472.9970025605856Q819.3860754999624 472.0456177206389 819.3860754999624 470.0309204125165L819.3860754999624 470.0309204125165L819.3860754999624 462.8955341129162L836.0912740131442 460.7689091765647L840.2325962576182 429.23329992303724Q840.428469607019 427.7222769419454 841.5477458893092 426.7708921019987Q842.6390402645421 425.819507262052 844.3459365950348 425.819507262052L844.3459365950348 425.819507262052L853.4120744815857 425.819507262052L853.4120744815857 460.9647825259655L882.625185449361 460.9647825259655L882.625185449361 473.97636930758955L853.4120744815857 473.97636930758955L853.4120744815857 535.2007819488656Q853.4120744815857 541.6646024790919 856.5460480719984 544.7705941624472Q859.680021662411 547.90456775286 864.6048373044881 547.90456775286L864.6048373044881 547.90456775286Q867.431009917271 547.90456775286 869.501671039508 547.1490562623139Q871.5443502546876 546.3935447717681 873.0553732357795 545.4981237459358Q874.5663962168712 544.5747208130465 875.629708685047 543.8192093225005Q876.6930211532227 543.0636978319546 877.5044964578831 543.0636978319546L877.5044964578831 543.0636978319546Q878.9035918107459 543.0636978319546 880.0228680930362 544.7705941624472L880.0228680930362 544.7705941624472L885.255484712743 553.3330577219676Q880.6104881412385 557.6702533158423 874.0627218898406 560.1326611368808Q867.5149556384428 562.6230508649764 860.5754426882432 562.6230508649764ZM979.1347828898369 470.6465223677761L974.4058405971606 477.08236099094495Q973.5943652925002 478.20163727323524 972.7828899878398 478.7892573214376Q971.9993965902365 479.4048592766972 970.4883736091448 479.4048592766972L970.4883736091448 479.4048592766972Q968.9773506280529 479.4048592766972 967.2144904834458 478.1456734591207Q965.4516303388386 476.8864876415442 962.7094034472276 475.37546466045234Q959.9951584626738 473.86444167936054 956.1336552887725 472.60525586178403Q952.2441702078139 471.3460700442075 946.5918249822481 471.3460700442075L946.5918249822481 471.3460700442075Q939.148637705018 471.3460700442075 933.4123467582806 474.0043512146468Q927.6760558115432 476.6906142921434 923.7865707305846 481.72735756244947Q919.897085649626 486.76410083275556 917.9383521556181 493.89948713235583Q915.9796186616102 501.06285533901337 915.9796186616102 509.9331198761635L915.9796186616102 509.9331198761635Q915.9796186616102 519.1951311121152 918.1062435979616 526.38648122583Q920.2048866272557 533.6058132466021 924.0384078940998 538.4746650745647Q927.8719291609439 543.3714988095844 933.3563829441662 545.945834258852Q938.8408367273883 548.5201697081195 945.696403956416 548.5201697081195L945.696403956416 548.5201697081195Q952.2441702078139 548.5201697081195 956.4694381734595 546.9531829129132Q960.6947061391052 545.386196117707 963.5208787518881 543.4834264378135Q966.347051364671 541.5526748508628 968.1658753233926 539.9856880556565Q969.9846992821142 538.4466831675074 971.7755413337785 538.4466831675074L971.7755413337785 538.4466831675074Q974.0980396195307 538.4466831675074 975.2173159018209 540.153579498L975.2173159018209 540.153579498L980.2540591721271 546.7013457493979Q973.5943652925002 554.8440807030594 963.632806380117 558.621638155789Q953.6432655606767 562.3991956085185 942.5624303660034 562.3991956085185L942.5624303660034 562.3991956085185Q932.9926181524218 562.3991956085185 924.7939193846457 558.8734753193042Q916.5952206168697 555.34775503009 910.5511286925024 548.6600792434058Q904.5070367681351 541.9724034567216 901.0092983859781 532.1787359866821Q897.5395419108784 522.4130504236997 897.5395419108784 509.9331198761635L897.5395419108784 509.9331198761635Q897.5395419108784 498.5444837038603 900.7294793154056 488.86274386204974Q903.8914348128756 479.20898592729645 909.9914905513573 472.21350916298246Q916.0915462898391 465.1900504916112 925.0457565481611 461.27258350359534Q933.9999668064829 457.3551165155795 945.584476328187 457.3551165155795L945.584476328187 457.3551165155795Q956.2735648240588 457.3551165155795 964.5282274059493 460.82487299067924Q972.7828899878398 464.294629465779 979.1347828898369 470.6465223677761L979.1347828898369 470.6465223677761ZM1016.8264116959607 561.0001002556558L998.8900092722595 561.0001002556558L998.8900092722595 412.61204713102717L1016.8264116959607 412.61204713102717L1016.8264116959607 472.6612196758985Q1023.3741779473585 465.6937248186418 1031.3210395516194 461.52442066711063Q1039.26790115588 457.3551165155795 1049.649188674122 457.3551165155795L1049.649188674122 457.3551165155795Q1058.0157788842414 457.3551165155795 1064.423635600353 460.12532531424785Q1070.8035104094074 462.8955341129162 1075.0847421891676 467.9602592902795Q1079.3659739689278 473.05296637470013 1081.576544626451 480.21633458135767Q1083.8150971910313 487.35172088095794 1083.8150971910313 496.0261120687073L1083.8150971910313 496.0261120687073L1083.8150971910313 561.0001002556558L1065.8786947673304 561.0001002556558L1065.8786947673304 496.0261120687073Q1065.8786947673304 484.4416025470033 1060.590114333509 478.0337458308917Q1055.3015338996877 471.6538710218373 1044.4165720544152 471.6538710218373L1044.4165720544152 471.6538710218373Q1036.4697104501543 471.6538710218373 1029.5581794070122 475.4873922886814Q1022.6466483638699 479.2929316484682 1016.8264116959607 485.8406978998661L1016.8264116959607 485.8406978998661L1016.8264116959607 561.0001002556558ZM1137.9041235327072 416.64144174727204L1250.9230461369643 416.64144174727204L1250.9230461369643 433.0668211898813L1204.2772070725186 433.0668211898813L1204.2772070725186 561.0001002556558L1184.7458359465538 561.0001002556558L1184.7458359465538 433.0668211898813L1137.9041235327072 433.0668211898813L1137.9041235327072 416.64144174727204ZM1286.5719957279084 561.0001002556558L1268.6635752112645 561.0001002556558L1268.6635752112645 412.61204713102717L1286.5719957279084 412.61204713102717L1286.5719957279084 472.6612196758985Q1293.1197619793063 465.6937248186418 1301.0946054906244 461.52442066711063Q1309.0414670948849 457.3551165155795 1319.422754613127 457.3551165155795L1319.422754613127 457.3551165155795Q1327.7893448232464 457.3551165155795 1334.1692196323008 460.12532531424785Q1340.5770763484124 462.8955341129162 1344.8583081281727 467.9602592902795Q1349.1395399079329 473.05296637470013 1351.3501105654561 480.21633458135767Q1353.5606812229792 487.35172088095794 1353.5606812229792 496.0261120687073L1353.5606812229792 496.0261120687073L1353.5606812229792 561.0001002556558L1335.6522607063355 561.0001002556558L1335.6522607063355 496.0261120687073Q1335.6522607063355 484.4416025470033 1330.363680272514 478.0337458308917Q1325.0750998386927 471.6538710218373 1314.1901379934202 471.6538710218373L1314.1901379934202 471.6538710218373Q1306.2152944821023 471.6538710218373 1299.3317453460172 475.4873922886814Q1292.420214302875 479.2929316484682 1286.5719957279084 485.8406978998661L1286.5719957279084 485.8406978998661L1286.5719957279084 561.0001002556558ZM1421.0530410450806 457.3551165155795L1421.0530410450806 457.3551165155795Q1430.2311065598608 457.3551165155795 1437.9820948147205 460.4051443848204Q1445.7330830695805 463.48315416111853 1451.3854282951463 469.27540892197055Q1457.0377735207119 475.06766368282257 1460.1997290181819 483.57416342822836Q1463.3616845156519 492.1086450806914 1463.3616845156519 502.96562501890674L1463.3616845156519 502.96562501890674Q1463.3616845156519 507.2188748916097 1462.4662634898198 508.6179702444725Q1461.5708424639877 510.01706559733526 1459.0524708288342 510.01706559733526L1459.0524708288342 510.01706559733526L1391.1403824008742 510.01706559733526Q1391.3362557502749 519.6988054391459 1393.770681664256 526.8621736458034Q1396.1771256711802 533.9975599454037 1400.4023936368258 538.7824660521944Q1404.6556435095288 543.5673721589852 1410.4758801774378 545.945834258852Q1416.3240987524043 548.2963144516615 1423.5714126802338 548.2963144516615L1423.5714126802338 548.2963144516615Q1430.3430341880896 548.2963144516615 1435.2118860160524 546.7573095635124Q1440.1087197510722 545.190322768306 1443.6344400402863 543.3714988095844Q1447.1601603295005 541.5526748508628 1449.5106405223103 539.9856880556565Q1451.889102622177 538.4466831675074 1453.5959989526696 538.4466831675074L1453.5959989526696 538.4466831675074Q1455.8065696101928 538.4466831675074 1457.0377735207119 540.153579498L1457.0377735207119 540.153579498L1462.0745167910181 546.7013457493979Q1458.7446698512047 550.7307403656428 1454.0996732797 553.6968225137118Q1449.4826586152528 556.6629046617811 1444.1940781814315 558.5936562487317Q1438.90549774761 560.4964259286251 1433.2531525220445 561.4478107685718Q1427.6008072964785 562.3991956085185 1422.060389699142 562.3991956085185L1422.060389699142 562.3991956085185Q1411.483228831499 562.3991956085185 1402.5849823872918 558.8454934122469Q1393.6587540360272 555.2638093089183 1387.1669515987437 548.352278265776Q1380.6751491614602 541.468729129691 1377.037501244017 531.2833149608498Q1373.427835233631 521.0979007920087 1373.427835233631 507.9184225680411L1373.427835233631 507.9184225680411Q1373.427835233631 497.2293340721693 1376.70171835933 487.96732283621753Q1379.9756014850288 478.7053116002658 1386.1036391305681 471.90570818535264Q1392.2596586831644 465.1061047704394 1401.1299232203144 461.21661968948086Q1409.9722058504074 457.3551165155795 1421.0530410450806 457.3551165155795ZM1421.4727696509397 470.53459473954706L1421.4727696509397 470.53459473954706Q1408.4611828693155 470.53459473954706 1401.0179955920855 478.0337458308917Q1393.5748083148553 485.56087882929353 1391.7559843561337 498.8522846814901L1391.7559843561337 498.8522846814901L1447.2441060506724 498.8522846814901Q1447.2441060506724 492.61231940772205 1445.5372097201798 487.4076846950724Q1443.8303133896873 482.23103188948005 1440.5004664498736 478.4534744367505Q1437.1706195100603 474.67591698402094 1432.3857134032694 472.60525586178403Q1427.6008072964785 470.53459473954706 1421.4727696509397 470.53459473954706ZM1606.6290486488026 429.93284759946863L1601.872124449069 439.2228407424776Q1600.976703423237 440.7338637235694 1599.9693547691757 441.48937521411534Q1598.9620061151143 442.24488670466127 1597.3390555057936 442.24488670466127L1597.3390555057936 442.24488670466127Q1595.632159175301 442.24488670466127 1593.3656247036631 440.5100084671114Q1591.0990902320252 438.8031121366188 1587.6293337569257 436.73245101438187Q1584.1595772818262 434.68977179920216 1579.2627435468062 432.9548935616523Q1574.3938917188436 431.2479972311597 1567.426396861587 431.2479972311597L1567.426396861587 431.2479972311597Q1560.878630610189 431.2479972311597 1555.841887339883 433.01085737576676Q1550.8051440695767 434.7737175203739 1547.4473152227063 437.79576348255756Q1544.0615044687781 440.8178094447412 1542.3546081382856 444.90316787510056Q1540.6477118077928 448.98852630545997 1540.6477118077928 453.71746859813624L1540.6477118077928 453.71746859813624Q1540.6477118077928 459.76156052250354 1543.6137939558619 463.7349913246339Q1546.5798761039312 467.7084221267642 1551.476709838951 470.53459473954706Q1556.3455616669137 473.3607673523299 1562.5575450336244 475.43142847456687Q1568.741546493278 477.50208959680384 1575.2333489305613 479.71266025432703Q1581.7251513678445 481.9232309118502 1587.9371347345555 484.6934397105186Q1594.1211361942092 487.46364850918695 1599.0179699292291 491.68891647483264Q1603.8868217571915 495.91418444047827 1606.8808858123177 502.0702039930746Q1609.846967960387 508.2262235456709 1609.846967960387 517.1804338039929L1609.846967960387 517.1804338039929Q1609.846967960387 526.6383183893454 1606.6290486488026 534.9489447853504Q1603.3831474301608 543.2595711813553 1597.1991459705073 549.4155907339517Q1591.0151445108538 555.5716102865481 1581.97698853136 559.0973305757623Q1572.9668144589236 562.6230508649764 1561.4942325654486 562.6230508649764L1561.4942325654486 562.6230508649764Q1547.4752971297632 562.6230508649764 1535.946751422174 557.530343780556Q1524.4182057145842 552.4376366961353 1516.2474888538657 543.763245508386L1516.2474888538657 543.763245508386L1521.8998340794315 534.5012342724342Q1522.7113093840917 533.4099398972013 1523.8585675734394 532.6544284066554Q1525.0338076698442 531.8989169161096 1526.432903022707 531.8989169161096L1526.432903022707 531.8989169161096Q1528.5595279590582 531.8989169161096 1531.2737729436121 534.1654513877472Q1533.988017928166 536.4319858593849 1538.0733763585254 539.1462308439388Q1542.1587347888847 541.8604758284926 1547.9509895497367 544.1270103001303Q1553.7432443105888 546.3935447717681 1562.081852613651 546.3935447717681L1562.081852613651 546.3935447717681Q1569.0493474709076 546.3935447717681 1574.4778374400155 544.4907750918746Q1579.9343093161804 542.560023504924 1583.7118667689099 539.0902670298242Q1587.4894242216394 535.6205105547244 1589.5041215297617 530.7796406338192Q1591.5188188378843 525.938770712914 1591.5188188378843 520.0066064167756L1591.5188188378843 520.0066064167756Q1591.5188188378843 513.4588401653778 1588.5247547827578 509.26155410678933Q1585.5586726346887 505.09224995525824 1580.7178027137834 502.26607734247534Q1575.9049146999353 499.4399047296925 1569.6929313332246 497.4811712356846Q1563.508929873571 495.5224377416767 1557.0171274362876 493.4517766194397Q1550.497343091947 491.3811154972028 1544.3133416322935 488.6668705126489Q1538.1293401726398 485.9526255280951 1533.2884702517347 481.61542993422046Q1528.4476003308293 477.27823434034576 1525.48151818276 470.78643190306235Q1522.515436034691 464.294629465779 1522.515436034691 454.72481725219745L1522.515436034691 454.72481725219745Q1522.515436034691 447.0577747185093 1525.48151818276 439.922388418909Q1528.4476003308293 432.75902021225147 1534.099945556395 427.2186026149148Q1539.7243088749035 421.67818501757813 1548.0349352709084 418.34833807776465Q1556.3455616669137 415.04647304500844 1567.1185958839571 415.04647304500844L1567.1185958839571 415.04647304500844Q1579.2067797326915 415.04647304500844 1589.196320552132 418.8520124047953Q1599.1578794645152 422.68553367163935 1606.6290486488026 429.93284759946863L1606.6290486488026 429.93284759946863ZM1632.5123126767642 412.61204713102717L1650.5326608216371 412.61204713102717L1650.5326608216371 499.94357905672314L1655.1776573931418 499.94357905672314Q1657.192354701264 499.94357905672314 1658.507504332955 499.41192282263523Q1659.794672057589 498.8522846814901 1661.4176226669097 497.1453883509975L1661.4176226669097 497.1453883509975L1693.6527795968686 462.5877331352864Q1695.1638025779605 460.9647825259655 1696.6748255590521 459.9574338719043Q1698.1858485401442 458.9500852178431 1700.7042201752972 458.9500852178431L1700.7042201752972 458.9500852178431L1717.0176719896774 458.9500852178431L1679.4379708117824 498.9362304026619Q1678.0388754589196 500.6711086402118 1676.6677620131143 501.9582763648455Q1675.324630474366 503.27342599653656 1673.6177341438733 504.2807746505978L1673.6177341438733 504.2807746505978Q1675.4085761955378 505.4839966540598 1676.8916172695724 507.05098344926614Q1678.3466764365496 508.6179702444725 1679.6618260682405 510.6326675525949L1679.6618260682405 510.6326675525949L1719.5360436248304 561.0001002556558L1703.418465159851 561.0001002556558Q1701.2078945023277 561.0001002556558 1699.6409077071214 560.1326611368808Q1698.073920911915 559.2932039251631 1696.6748255590521 557.4743799664415L1696.6748255590521 557.4743799664415L1663.1245189974022 515.669410822901Q1661.6134960163106 513.5427858865496 1660.1024730352185 512.8992020242326Q1658.5914500541269 512.2556181619157 1655.5694040919432 512.2556181619157L1655.5694040919432 512.2556181619157L1650.5326608216371 512.2556181619157L1650.5326608216371 561.0001002556558L1632.5123126767642 561.0001002556558L1632.5123126767642 412.61204713102717ZM1771.834227914842 457.3551165155795L1771.834227914842 457.3551165155795Q1780.9843115225647 457.3551165155795 1788.7352997774244 460.4051443848204Q1796.5142699393418 463.48315416111853 1802.1386332578502 469.27540892197055Q1807.7909784834158 475.06766368282257 1810.9529339808857 483.57416342822836Q1814.142871385413 492.1086450806914 1814.142871385413 502.96562501890674L1814.142871385413 502.96562501890674Q1814.142871385413 507.2188748916097 1813.2194684525234 508.6179702444725Q1812.3240474266913 510.01706559733526 1809.8056757915383 510.01706559733526L1809.8056757915383 510.01706559733526L1741.893587363578 510.01706559733526Q1742.117442620036 519.6988054391459 1744.5238866269601 526.8621736458034Q1746.930330633884 533.9975599454037 1751.1835805065868 538.7824660521944Q1755.4088484722326 543.5673721589852 1761.2570670471991 545.945834258852Q1767.0773037151084 548.2963144516615 1774.352599549995 548.2963144516615L1774.352599549995 548.2963144516615Q1781.0962391507937 548.2963144516615 1785.9650909787563 546.7573095635124Q1790.861924713776 545.190322768306 1794.3876450029902 543.3714988095844Q1797.9133652922044 541.5526748508628 1800.2918273920714 539.9856880556565Q1802.6423075848809 538.4466831675074 1804.3492039153734 538.4466831675074L1804.3492039153734 538.4466831675074Q1806.587756479954 538.4466831675074 1807.7909784834158 540.153579498L1807.7909784834158 540.153579498L1812.827721753722 546.7013457493979Q1809.4978748139083 550.7307403656428 1804.852878242404 553.6968225137118Q1800.2358635779567 556.6629046617811 1794.9472831441353 558.5936562487317Q1789.658702710314 560.4964259286251 1784.0063574847482 561.4478107685718Q1778.3819941662398 562.3991956085185 1772.841576568903 562.3991956085185L1772.841576568903 562.3991956085185Q1762.2644157012603 562.3991956085185 1753.3381873499957 558.8454934122469Q1744.411958998731 555.2638093089183 1737.9201565614476 548.352278265776Q1731.4283541241643 541.468729129691 1727.7907062067209 531.2833149608498Q1724.1810401963348 521.0979007920087 1724.1810401963348 507.9184225680411L1724.1810401963348 507.9184225680411Q1724.1810401963348 497.2293340721693 1727.454923322034 487.96732283621753Q1730.7288064477327 478.7053116002658 1736.856844093272 471.90570818535264Q1743.0128636458683 465.1061047704394 1751.8831281830185 461.21661968948086Q1760.7533927201684 457.3551165155795 1771.834227914842 457.3551165155795ZM1772.2259746136435 470.53459473954706L1772.2259746136435 470.53459473954706Q1759.2423697390766 470.53459473954706 1751.7712005547894 478.0337458308917Q1744.3280132775594 485.56087882929353 1742.5091893188376 498.8522846814901L1742.5091893188376 498.8522846814901L1798.0252929204335 498.8522846814901Q1798.0252929204335 492.61231940772205 1796.2904146828837 487.4076846950724Q1794.5835183523911 482.23103188948005 1791.2536714125774 478.4534744367505Q1787.9518063798214 474.67591698402094 1783.1669002730307 472.60525586178403Q1778.3819941662398 470.53459473954706 1772.2259746136435 470.53459473954706ZM1867.9240967494588 562.6230508649764L1867.9240967494588 562.6230508649764Q1855.8359129007245 562.6230508649764 1849.344110463441 555.8514293571207Q1842.8523080261575 549.1077897563218 1842.8523080261575 536.4319858593849L1842.8523080261575 536.4319858593849L1842.8523080261575 473.97636930758955L1830.540268920965 473.97636930758955Q1828.9453002187013 473.97636930758955 1827.826023936411 472.9970025605856Q1826.734729561178 472.0456177206389 1826.734729561178 470.0309204125165L1826.734729561178 470.0309204125165L1826.734729561178 462.8955341129162L1843.43992807436 460.7689091765647L1847.581250318834 429.23329992303724Q1847.7771236682347 427.7222769419454 1848.8963999505247 426.7708921019987Q1849.987694325758 425.819507262052 1851.6945906562505 425.819507262052L1851.6945906562505 425.819507262052L1860.7607285428014 425.819507262052L1860.7607285428014 460.9647825259655L1889.9738395105765 460.9647825259655L1889.9738395105765 473.97636930758955L1860.7607285428014 473.97636930758955L1860.7607285428014 535.2007819488656Q1860.7607285428014 541.6646024790919 1863.8947021332142 544.7705941624472Q1867.0286757236267 547.90456775286 1871.9534913657037 547.90456775286L1871.9534913657037 547.90456775286Q1874.7796639784867 547.90456775286 1876.8503251007237 547.1490562623139Q1878.8930043159032 546.3935447717681 1880.4040272969953 545.4981237459358Q1881.915050278087 544.5747208130465 1882.9783627462627 543.8192093225005Q1884.0416752144383 543.0636978319546 1884.8531505190988 543.0636978319546L1884.8531505190988 543.0636978319546Q1886.2522458719616 543.0636978319546 1887.3715221542518 544.7705941624472L1887.3715221542518 544.7705941624472L1892.6041387739585 553.3330577219676Q1887.9591422024544 557.6702533158423 1881.4113759510562 560.1326611368808Q1874.8636096996586 562.6230508649764 1867.9240967494588 562.6230508649764ZM1986.4834369510527 470.6465223677761L1981.7544946583762 477.08236099094495Q1980.9430193537157 478.20163727323524 1980.1315440490555 478.7892573214376Q1979.3480506514522 479.4048592766972 1977.8370276703606 479.4048592766972L1977.8370276703606 479.4048592766972Q1976.3260046892685 479.4048592766972 1974.5631445446616 478.1456734591207Q1972.8002844000546 476.8864876415442 1970.0580575084432 475.37546466045234Q1967.3438125238895 473.86444167936054 1963.482309349988 472.60525586178403Q1959.5928242690295 471.3460700442075 1953.9404790434637 471.3460700442075L1953.9404790434637 471.3460700442075Q1946.497291766234 471.3460700442075 1940.7610008194963 474.0043512146468Q1935.0247098727589 476.6906142921434 1931.1352247918003 481.72735756244947Q1927.2457397108415 486.76410083275556 1925.2870062168338 493.89948713235583Q1923.3282727228257 501.06285533901337 1923.3282727228257 509.9331198761635L1923.3282727228257 509.9331198761635Q1923.3282727228257 519.1951311121152 1925.454897659177 526.38648122583Q1927.5535406884715 533.6058132466021 1931.3870619553154 538.4746650745647Q1935.2205832221596 543.3714988095844 1940.7050370053817 545.945834258852Q1946.189490788604 548.5201697081195 1953.0450580176316 548.5201697081195L1953.0450580176316 548.5201697081195Q1959.5928242690295 548.5201697081195 1963.8180922346753 546.9531829129132Q1968.0433602003209 545.386196117707 1970.869532813104 543.4834264378135Q1973.6957054258864 541.5526748508628 1975.5145293846083 539.9856880556565Q1977.33335334333 538.4466831675074 1979.1241953949943 538.4466831675074L1979.1241953949943 538.4466831675074Q1981.4466936807464 538.4466831675074 1982.5659699630369 540.153579498L1982.5659699630369 540.153579498L1987.602713233343 546.7013457493979Q1980.9430193537157 554.8440807030594 1970.9814604413327 558.621638155789Q1960.9919196218923 562.3991956085185 1949.911084427219 562.3991956085185L1949.911084427219 562.3991956085185Q1940.3412722136372 562.3991956085185 1932.1425734458612 558.8734753193042Q1923.9438746780856 555.34775503009 1917.899782753718 548.6600792434058Q1911.8556908293508 541.9724034567216 1908.3579524471936 532.1787359866821Q1904.888195972094 522.4130504236997 1904.888195972094 509.9331198761635L1904.888195972094 509.9331198761635Q1904.888195972094 498.5444837038603 1908.0781333766213 488.86274386204974Q1911.2400888740913 479.20898592729645 1917.3401446125729 472.21350916298246Q1923.440200351055 465.1900504916112 1932.3944106093768 461.27258350359534Q1941.3486208676986 457.3551165155795 1952.9331303894028 457.3551165155795L1952.9331303894028 457.3551165155795Q1963.6222188852742 457.3551165155795 1971.876881467165 460.82487299067924Q1980.1315440490555 464.294629465779 1986.4834369510527 470.6465223677761L1986.4834369510527 470.6465223677761ZM2024.1750657571763 561.0001002556558L2006.2386633334752 561.0001002556558L2006.2386633334752 412.61204713102717L2024.1750657571763 412.61204713102717L2024.1750657571763 472.6612196758985Q2030.7228320085742 465.6937248186418 2038.669693612835 461.52442066711063Q2046.6165552170955 457.3551165155795 2056.9978427353376 457.3551165155795L2056.9978427353376 457.3551165155795Q2065.3644329454573 457.3551165155795 2071.7722896615687 460.12532531424785Q2078.152164470623 462.8955341129162 2082.4333962503833 467.9602592902795Q2086.714628030143 473.05296637470013 2088.9251986876666 480.21633458135767Q2091.1637512522475 487.35172088095794 2091.1637512522475 496.0261120687073L2091.1637512522475 496.0261120687073L2091.1637512522475 561.0001002556558L2073.2273488285464 561.0001002556558L2073.2273488285464 496.0261120687073Q2073.2273488285464 484.4416025470033 2067.938768394725 478.0337458308917Q2062.650187960903 471.6538710218373 2051.765226115631 471.6538710218373L2051.765226115631 471.6538710218373Q2043.8183645113702 471.6538710218373 2036.906833468228 475.4873922886814Q2029.9953024250858 479.2929316484682 2024.1750657571763 485.8406978998661L2024.1750657571763 485.8406978998661L2024.1750657571763 561.0001002556558Z " fill="#080a52" transform="matrix(0.4184275689866759,0,0,0.41842756898667605,0,95.96345319621331)"/></g></svg>